<svg width="189" height="158" viewBox="0 0 189 158" fill="none" xmlns="http://www.w3.org/2000/svg">
<path d="M67 36.2727C66.9179 36.2175 66.8353 36.1625 66.7521 36.108C61.3885 32.5881 54.8097 30.8281 47.0156 30.8281C41.3168 30.8281 36.3303 31.75 32.0561 33.5938C27.8239 35.4375 24.5135 37.9727 22.125 41.1992C19.7784 44.4258 18.6051 48.0923 18.6051 52.1989C18.6051 55.6349 19.4222 58.5891 21.0565 61.0614C22.7326 63.4918 24.8697 65.5241 27.4677 67.1584C30.0657 68.7507 32.7894 70.0707 35.6389 71.1183C38.4883 72.1239 41.1072 72.9411 43.4957 73.5696L56.5696 77.0895C59.9219 77.9695 63.6513 79.1847 67.7578 80.7351C71.9062 82.2855 75.8661 84.4016 79.6374 87.0835C83.4506 89.7234 86.5934 93.1175 89.0657 97.266C91.538 101.414 92.7742 106.506 92.7742 112.54C92.7742 119.496 90.9513 125.781 87.3058 131.396C83.7021 137.011 78.4222 141.474 71.4663 144.784C69.6642 145.647 67.7612 146.398 65.757 147.036C64.3435 138.505 56.9314 132 48 132C38.7585 132 31.1436 138.965 30.1176 147.931C27.3546 147.245 24.7533 146.363 22.3136 145.287C15.609 142.312 10.3292 138.164 6.47408 132.842C2.66087 127.52 0.502841 121.339 0 114.3H0.251285C0.0852745 113.053 0 111.785 0 110.5C0 97.4348 8.8189 86.1165 21.6836 80.5932C18.124 78.6572 15.0027 76.4627 12.3196 74.0096C6.45312 68.646 3.51989 61.6271 3.51989 52.9531C3.51989 45.7457 5.46839 39.4602 9.36541 34.0966C13.3043 28.6911 18.5842 24.5007 25.2049 21.5256C31.8675 18.5085 39.3054 17 47.5185 17C54.7037 17 61.1975 18.1157 67 20.347V36.2727Z" fill="white"/>
<path d="M91 50.5651V50.9418H91.0142C91.0101 50.8159 91.0054 50.6904 91 50.5651Z" fill="white"/>
<circle cx="48" cy="150" r="8" fill="white"/>
<path d="M76 22C76 22 78 22.2937 83.5 25C89 27.7063 91 29.5 91 29.5V81C91 81 89 78.1615 83.5 74.9127C78.569 72 76 71.6349 76 71.6349V22Z" fill="white"/>
<circle cx="83.5" cy="7.5" r="7.5" fill="white"/>
<path d="M163 36.2727C162.918 36.2175 162.835 36.1625 162.752 36.108C157.388 32.5881 150.81 30.8281 143.016 30.8281C137.317 30.8281 132.33 31.75 128.056 33.5938C123.824 35.4375 120.513 37.9727 118.125 41.1992C115.778 44.4258 114.605 48.0923 114.605 52.1989C114.605 55.6349 115.422 58.5891 117.056 61.0614C118.733 63.4918 120.87 65.5241 123.468 67.1584C126.066 68.7507 128.789 70.0707 131.639 71.1183C134.488 72.1239 137.107 72.9411 139.496 73.5696L152.57 77.0895C155.922 77.9695 159.651 79.1847 163.758 80.7351C167.906 82.2855 171.866 84.4016 175.637 87.0835C179.451 89.7234 182.593 93.1175 185.066 97.266C187.538 101.414 188.774 106.506 188.774 112.54C188.774 119.496 186.951 125.781 183.306 131.396C179.702 137.011 174.422 141.474 167.466 144.784C165.664 145.647 163.761 146.398 161.757 147.036C160.343 138.505 152.931 132 144 132C134.758 132 127.144 138.965 126.118 147.931C123.355 147.245 120.753 146.363 118.314 145.287C111.609 142.312 106.329 138.164 102.474 132.842C98.6609 127.52 96.5028 121.339 96 114.3H96.2513C96.0853 113.053 96 111.785 96 110.5C96 97.4348 104.819 86.1165 117.684 80.5932C114.124 78.6572 111.003 76.4627 108.32 74.0096C102.453 68.646 99.5199 61.6271 99.5199 52.9531C99.5199 45.7457 101.468 39.4602 105.365 34.0966C109.304 28.6911 114.584 24.5007 121.205 21.5256C127.868 18.5085 135.305 17 143.518 17C150.704 17 157.198 18.1157 163 20.347V36.2727Z" fill="white"/>
<path d="M187 50.5651V50.9418H187.014C187.01 50.8159 187.005 50.6904 187 50.5651Z" fill="white"/>
<circle cx="144" cy="150" r="8" fill="white"/>
<path d="M172 22C172 22 174 22.2937 179.5 25C185 27.7063 187 29.5 187 29.5V81C187 81 185 78.1615 179.5 74.9127C174.569 72 172 71.6349 172 71.6349V22Z" fill="white"/>
<circle cx="179.5" cy="7.5" r="7.5" fill="white"/>
</svg>
